<svg xmlns="http://www.w3.org/2000/svg" width="256" height="256"><path fill-opacity=".016" d="M0 128.004v128.004l128.25-.254 128.25-.254.254-127.75L257.008 0H0v128.004m.485.496c0 70.4.119 99.053.265 63.672.146-35.38.146-92.98 0-128C.604 29.153.485 58.1.485 128.5" fill="#fff" fill-rule="evenodd"/><path fill-opacity=".219" d="M37.5 10.896c-2.2 1.018-5.35 3.288-7 5.043l-3 3.19-.66 18.686c-.363 10.277-.701 36.259-.75 57.739L26 134.608l-3.622 3.446c-4.167 3.964-7.324 10.133-7.356 14.373-.013 1.72-1.568 5.17-3.772 8.369l-3.75 5.443.066 12.13c.036 6.672.604 15.87 1.262 20.439 1.812 12.578 4.308 16.591 17.327 27.856.74.64 2.857 2.764 4.706 4.72 4.356 4.609 11.364 7.165 26.148 9.537 9.352 1.501 12.621 2.458 15.251 4.464 6.115 4.664 9.848 5.615 22.038 5.615 10.135 0 11.895-.27 16.283-2.496 4.588-2.328 5.927-2.497 19.919-2.515 28.771-.038 68.637-3.909 81.506-7.914 3.386-1.054 7.887-3.115 10.002-4.581 7.537-5.223 7.07 2.429 6.765-110.767L228.5 21.353l-2.5-3.694c-1.451-2.143-4.576-4.735-7.446-6.176L213.607 9l-86.053.022c-81.628.021-86.26.117-90.054 1.874m2.208 6.194c-7.183 3.79-7.722 5.783-7.544 27.91.086 10.725.338 18.038.559 16.25.328-2.639.849-3.25 2.774-3.25 1.818 0 2.467-.641 2.787-2.75.34-2.246.477-2.016.748 1.25.182 2.2.587-1.934.899-9.187.559-12.949.623-13.244 3.569-16.339C49.502 24.668 44.827 25 127.49 25c73.218 0 75.711.062 79.449 1.969 6.645 3.39 8.061 6.949 8.061 20.26v11.494l2.5-.478c1.52-.291 2.5-.017 2.5.697 0 .647.418.918.929.602.51-.315 1.086.446 1.279 1.691.194 1.246.685-5.579 1.091-15.166.715-16.871.666-17.577-1.53-22-1.528-3.078-3.575-5.298-6.269-6.803l-4-2.233-84 .028c-82.063.027-84.087.074-87.792 2.029M220.07 53.691c.039.445.457 1.709.93 2.809.829 1.928.862 1.921.93-.191.038-1.205-.38-2.469-.93-2.809-.55-.34-.968-.254-.93.191m-3.257 6.992c.721.289 1.584.253 1.916-.079.332-.332-.258-.568-1.312-.525-1.165.048-1.402.285-.604.604M89.5 90c4.95.342 7.763.707 6.25.811-1.513.104-2.75.587-2.75 1.072 0 .486-.895 1.118-1.988 1.404-1.093.286-2.432 1.688-2.975 3.116C87.494 97.831 86.412 99 85.632 99c-.78 0-1.677.675-1.994 1.5-.387 1.009-2.141 1.552-5.357 1.66-3.858.129-4.105.23-1.281.52 6.236.641 7.795 1.269 10.923 4.397 8.23 8.23-.466 21.543-12.781 19.565-2.514-.404-3.177-.289-2.142.371.825.526 2.764.963 4.309.972 1.545.008 2.572.399 2.281.869-.29.469.601 1.367 1.979 1.995 2.83 1.29 3.245 1.595 9.294 6.819 2.4 2.073 4.702 4.683 5.115 5.8.659 1.782.839 1.636 1.457-1.176.884-4.022 6.423-8.987 10.978-9.842 7.701-1.444 15.86 4.373 15.86 11.308 0 2.125-.54 4.873-1.2 6.106-3.3 6.165-13.896 8.103-20.352 3.722l-3.557-2.415 1.026 2.946c.565 1.619.804 3.797.532 4.839-.444 1.696.304 1.968 7.141 2.594 4.2.384 8.817 1.3 10.26 2.034 1.443.735 2.943 1.017 3.334.626.39-.39.58-.26.422.29-.158.55.685 2.8 1.873 5 2.509 4.647 3.041 3.951.611-.8l-1.637-3.2 2.137 1.905c1.175 1.048 2.144 1.498 2.152 1 .009-.498.452-.23.985.595.646 1 .974 1.083.985.25.008-.687.423-1.25.921-1.25.499 0 .702 1.012.452 2.25-.32 1.585-.038 1.363.955-.75.775-1.65 1.213-3.349.974-3.775-.24-.426-.065-.671.389-.544.453.127 2.264-.537 4.024-1.475 5.587-2.978 12.386-2.152 17.858 2.169 1.132.894.535.197-1.327-1.548-2.447-2.293-2.879-3.096-1.558-2.897 2.994.451 7.032-1.39 10.984-5.01 3.483-3.19 3.861-3.311 5.995-1.912 1.253.82 2.631 1.489 3.063 1.485.432-.003-.537-.878-2.153-1.943-1.615-1.065-3.206-1.77-3.535-1.566-.329.203-.696-.385-.816-1.307-1.439-11.066-1.469-10.716 1.235-13.931 3.154-3.748 8.463-5.683 13.412-4.888 2.514.404 3.177.289 2.142-.371-.825-.526-2.625-.97-4-.987-1.795-.022-2.116-.274-1.137-.894 1.151-.729 1.151-.948 0-1.406-.75-.298-.238-.585 1.137-.636 1.375-.052 3.175-.525 4-1.051 1.035-.66.372-.775-2.142-.371-12.288 1.973-20.484-10.304-12.754-19.107 1.707-1.944 2.776-3.535 2.377-3.535s-.259-.563.311-1.25c.728-.877.601-2.289-.426-4.73-1.16-2.759-1.657-3.174-2.399-2-.819 1.295-.938 1.289-.952-.048-.02-2.055-3.514-4.928-6.276-5.161-1.232-.104 1.811-.469 6.761-.811 4.95-.342-12.375-.622-38.5-.622s-43.45.28-38.5.622M83 102.393c0 .216.698.661 1.552.989.89.341 1.291.173.941-.393-.587-.951-2.493-1.406-2.493-.596m88.165.484c-.781.495.879.663 4 .405 7.328-.605 8.323-1.112 2.335-1.188-2.75-.035-5.601.317-6.335.783m-67.975 2.149c-3.928 2.394-6.566 7.987-5.676 12.036.814 3.708 6.507 8.664 10.899 9.488 7.701 1.444 15.86-4.373 15.86-11.308 0-2.125-.54-4.873-1.2-6.106-3.141-5.869-13.49-8.008-19.883-4.11m34.31-.47c-4.468 2.299-6.453 5.399-6.478 10.117-.063 11.868 15.531 16.294 23.885 6.78 3.605-4.105 3.928-7.572 1.133-12.154-3.61-5.922-12.053-8.081-18.54-4.743m-70.628 2.194c-1.243 1.586-1.208 1.621.378.378 1.666-1.307 2.195-2.128 1.372-2.128-.207 0-.995.787-1.75 1.75m6.13.249c-1.215.751-1.164 1.002.319 1.571 2.113.81 2.836.303 1.848-1.296-.459-.743-1.248-.843-2.167-.275m33.138-.085c-1.015.627-.921.956.419 1.47 2.082.799 2.578.456 1.61-1.11-.418-.676-1.273-.828-2.029-.36m33.469-.09c-.353.571-.154 1.339.441 1.707 1.486.918 2.012.188 1.021-1.417-.532-.859-1.047-.962-1.462-.29m33.085-.185c-.799.799.104 2.361 1.365 2.361.518 0 .941-.675.941-1.5 0-1.546-1.18-1.987-2.306-.861m-95.944 5.067c2.684.517 2.708.665.635 3.829-.888 1.356-1.185 2.465-.661 2.465.961 0 3.276-4.273 3.276-6.047 0-.524-1.237-.892-2.75-.817-2.358.117-2.429.198-.5.57m32.03 2.338c-.245 1.674-.06 3.283.412 3.574.471.292.734-.065.583-.794-.151-.728.4-1.324 1.225-1.324.825 0 1.376.596 1.225 1.324-.151.729.112 1.086.583.794.472-.291.657-1.9.412-3.574-.305-2.079-1.009-3.044-2.22-3.044-1.211 0-1.915.965-2.22 3.044m33.565-1.501c-.326.849-.311 1.824.031 2.167.343.343.624-.164.624-1.127 0-2.061 2.471-1.578 2.561.5.034.779-.359 1.98-.872 2.667-.604.809-.545 1.25.17 1.25 1.333 0 2.592-4.462 1.676-5.943-.972-1.573-3.513-1.278-4.19.486M110 113c0 .55.45 1 1 1s1-.45 1-1-.45-1-1-1-1 .45-1 1m81.232 2c0 1.925.206 2.713.457 1.75.252-.963.252-2.537 0-3.5-.251-.963-.457-.175-.457 1.75m-128.074 0c0 1.375.227 1.938.504 1.25.278-.687.278-1.812 0-2.5-.277-.687-.504-.125-.504 1.25m113.155-1.184c-.763.478-.701 1.047.208 1.889 1.02.947 1.417.9 1.845-.218.649-1.689-.514-2.636-2.053-1.671M64 118.941c0 .518.445 1.216.989 1.552.566.35.734-.051.393-.941-.665-1.732-1.382-2.049-1.382-.611m122.872 4.809c-1.243 1.586-1.208 1.621.378.378.963-.755 1.75-1.543 1.75-1.75 0-.823-.821-.294-2.128 1.372m-144.099 4.805c-12.481 3.025-23.433 11.756-25.807 20.572-3.785 14.055 9.33 28.421 29.185 31.969 5.301.948 7.32.991 7.596.162.207-.621 1.738-3.008 3.402-5.306 2.18-3.009 2.722-4.481 1.939-5.264-1.693-1.693-1.286-2.553.932-1.972 1.23.321 3.48-.48 5.75-2.048C71 163.057 76.333 161 80.468 161c3.001 0 3.532-.34 3.532-2.259 0-1.243-.9-2.822-2-3.509-2.675-1.671-2.579-3.617.144-2.905 1.208.316 1.754.186 1.25-.298-.492-.473-1.984-1.01-3.316-1.194-3.041-.421-4.03-2.835-1.161-2.835 1.146 0 2.083-.349 2.083-.776 0-.427-1.8-.605-4-.395-4.383.418-5.292-.92-1.75-2.575 1.842-.86 1.434-.964-2.25-.575l-4.5.476L71 142.1c2.672-2.197 1.683-2.69-2.332-1.164-3.727 1.417-4.077-.009-.531-2.166 3.592-2.184 3.175-2.833-3.398-5.279-7.598-2.827-19.927-1.682-28.556 2.653C28.366 140.07 25 144.305 25 150.214c0 4.187 1.444 7.785 3.646 9.086 1.771 1.046 1.71 2.201-.217 4.129-1.429 1.428-1.361 1.573.75 1.593l2.321.022-2.377 1.828c-2.368 1.821-2.369 1.83-.25 2.385 1.17.305 2.127 1.048 2.127 1.649 0 3.294-6.101-1.516-9.689-7.639-1.927-3.287-2.668-5.903-2.618-9.234.31-20.56 32.643-32.695 57.209-21.472 6.373 2.911 7.696 2.705 2.257-.352-8.883-4.992-23.598-6.512-35.386-3.654m96.56 4.542c-4.791 1.387-8.34 6.188-8.301 11.23.035 4.567 1.473 7.047 5.702 9.836 3.409 2.248 10.303 2.386 14.36.288 3.595-1.859 6.897-6.941 6.902-10.624.005-3.368-4.394-8.677-8.667-10.463-3.678-1.537-5.446-1.584-9.996-.267m-33.183 3.853c.22.66.726 1.166 1.125 1.125 1.196-.124.964-1.495-.325-1.925-.66-.22-1.02.14-.8.8m33 0c.22.66.726 1.166 1.125 1.125 1.196-.124.964-1.495-.325-1.925-.66-.22-1.02.14-.8.8m33.456.466c.335.871 1.047 1.584 1.584 1.584 1.315 0 .492-2.273-1.003-2.771-.731-.244-.954.214-.581 1.187m-63.591 5.334c.01 1.079.297 1.328.75.65.404-.605 1.41-1.357 2.235-1.671 1.002-.382.753-.597-.75-.65-1.512-.053-2.245.495-2.235 1.671m33.172 1.5c.238 2.471.789 3.25 2.299 3.25 1.097 0 2.138-.784 2.324-1.75.185-.963-.146-1.75-.737-1.75-.59 0-.96.506-.823 1.125s-.372 1.351-1.132 1.627c-1.044.38-1.27-.263-.923-2.625.252-1.72.058-3.127-.432-3.127-.489 0-.749 1.463-.576 3.25M92.72 146.5c.429 1.65.731 5.7.671 9-.099 5.439-.021 5.677.833 2.542 1.015-3.728.337-10.614-1.284-13.042-.708-1.061-.772-.622-.22 1.5m19.28-1.24c0 .876-.787 1.799-1.75 2.051-1.64.428-1.638.464.031.573 1.808.118 3.484-2.453 2.343-3.594-.343-.343-.624.094-.624.97m-72.399 6.441c-2.083 1.091-2.528 1.772-1.701 2.599.826.826 1.897.66 4.09-.635 2.915-1.722 3.099-1.698 9.908 1.29 9.358 4.108 10.192 3.765 1.602-.658-8.212-4.228-10.107-4.583-13.899-2.596m23.407 4.427c-.008 2.683-2.163 5.383-3.35 4.197-.362-.362-.658-.133-.658.508 0 .642.527 1.167 1.17 1.167 1.452 0 12.809-7.246 12.821-8.18.005-.375-2.237-.6-4.983-.5-4.675.169-4.993.347-5 2.808m22.831 2.122c-.472 2.312-.225 2.748 1.55 2.735 1.265-.009 1.656-.31.977-.75-.624-.404-1.322-1.635-1.55-2.735-.343-1.65-.514-1.519-.977.75m88.911-1.544c1.238.238 3.262.238 4.5 0 1.238-.239.225-.434-2.25-.434s-3.488.195-2.25.434m-162.674 4.925c-8.017 10.192-2.577 25.88 11.662 33.63 5.415 2.947 15.708 5.701 21.395 5.724 3.078.013 3.706-.364 4.107-2.461.602-3.149.18-3.524-3.972-3.524-3.494 0-17.332-5.843-20.388-8.608-1.412-1.278-2.118-1.335-4.01-.323l-2.296 1.229 2.213.819c2.136.79 3.115 2.883 1.348 2.883-1.618 0-5.985-4.022-8.123-7.481-4.362-7.057-4.501-11.786-.61-20.769 1.913-4.415 1.524-4.743-1.326-1.119m79.424 2.596C83.441 167.1 75.863 174.711 71.815 184c-2.525 5.792-3.568 24.617-1.789 32.268 2.592 11.146 12.676 25.014 16.809 23.116.916-.421 3.085-.792 4.82-.824 3.803-.072 3.452-1.158-.666-2.063-3.916-.859-3.898-2.629.018-1.846 2.454.491 3.387.117 5.08-2.034 2.357-2.997 3.927-2.696 3.305.634-.231 1.237.149.806.844-.957s1.827-3.766 2.514-4.45c.999-.994 1.25-.701 1.25 1.456 0 1.485.45 2.7 1 2.7s1-1.725 1-3.833c0-4.957 1.055-5.934 2.636-2.441 1.201 2.656 1.231 2.599.702-1.35-.623-4.646 1.207-7.036 2.239-2.924 1.004 3.998 2.292 1.993 1.676-2.605-.402-2.991-.235-3.954.595-3.441.634.392 1.168 1.473 1.187 2.403.026 1.22.421.995 1.419-.809.761-1.375 1.533-2.311 1.715-2.081.588.744 4.831-1.953 4.831-3.071 0-.595-.9-.846-2-.558-2.8.732-2.533-1.466.5-4.103 3.012-2.619 3.269-4.621.5-3.897-1.716.449-2 .03-2-2.949 0-5.722-3.877-10.553-4.086-5.091-.073 1.91-.217 1.812-.952-.646-.598-1.998-.418-3.969.58-6.36 1.286-3.076 1.266-3.846-.174-6.88-2.214-4.668-9.849-11.176-14.029-11.96-7.189-1.349-13.292.768-20.255 7.026l-3.415 3.07 2.235-3.252c7.007-10.194 20.265-13.774 30.906-8.345 5.423 2.767 11.688 10.182 14.318 16.95 2.665 6.855 3.727 23.696 1.941 30.787-1.416 5.623-.654 7.061.902 1.704 1.896-6.525 2.393-17.817 1.078-24.502-2.354-11.963-11.205-24.92-19.348-28.323-4.137-1.728-13.739-1.882-18.201-.292m48.194 1.412c-.799.799.104 2.361 1.365 2.361.518 0 .941-.675.941-1.5 0-1.546-1.18-1.987-2.306-.861m33 0c-.799.799.104 2.361 1.365 2.361.518 0 .941-.675.941-1.5 0-1.546-1.18-1.987-2.306-.861M51 168.8c0 .44.538 1.338 1.196 1.996.929.929.761 1.515-.748 2.618-2.475 1.81-1.303 3.114 1.466 1.632 2.313-1.238 2.731-4.001.886-5.846-1.374-1.374-2.8-1.577-2.8-.4m-4.269 2.12c-.435 1.663-.305 2.054.437 1.312.582-.582.86-1.647.62-2.369-.25-.749-.703-.295-1.057 1.057m96.519-.231c2.001.523 2.383 2.303.5 2.326-.905.011-.87.256.128.889.786.497 1.048 1.406.611 2.114-.475.768-.304 1.087.447.837.668-.223 1.18-.731 1.139-1.13-.041-.399-.075-1.85-.075-3.225 0-1.96-.486-2.475-2.25-2.384-1.693.087-1.817.229-.5.573m34.374.85c-.965 2.514-.681 3.163.498 1.136.584-1.004.851-2.036.593-2.293-.257-.258-.749.263-1.091 1.157m-2.06 5.168c-.542 1.425-.428 1.54.56.56.684-.679.991-1.486.683-1.793-.308-.308-.867.247-1.243 1.233M33 184c0 2.75.188 5 .418 5 .23 0 1.13.273 2 .607 1.313.504 1.582-.245 1.582-4.393 0-4.576-.944-6.214-3.582-6.214-.23 0-.418 2.25-.418 5m31.14-2.853c-.87 1.393-.486 1.711 2.484 2.057 2.602.304 3.754-.041 4.444-1.331 1.291-2.411 1.331-2.373-2.484-2.373-2.088 0-3.815.64-4.444 1.647m-24.942 5.103c.263 4.574.592 5.291 2.552 5.57 2.074.294 2.25-.069 2.25-4.643 0-3.603-.433-5.129-1.582-5.57-3.091-1.186-3.52-.567-3.22 4.643M19 183c0 .55.477 1 1.059 1s.781-.45.441-1-.816-1-1.059-1-.441.45-.441 1m27.558-.225c-.307.307-.558 2.681-.558 5.275 0 3.829.366 4.812 1.942 5.225 1.627.425 2.102-.24 2.925-4.101.541-2.534.799-4.906.574-5.27-.588-.95-4.222-1.79-4.883-1.129m14.049 4.807C59.486 190.502 59.981 191 64 191c2.2 0 4-.413 4-.918 0-.505.273-1.63.607-2.5.491-1.28-.156-1.582-3.393-1.582-2.725 0-4.194.504-4.607 1.582M59 193.918c0 .505-.249 1.567-.553 2.361-.732 1.905 6.587 3.267 7.747 1.442C68.168 194.613 67.077 193 63 193c-2.2 0-4 .413-4 .918m38.991 7.098c-3.389 6.297-4.69 7.897-6.068 7.459-3.313-1.051-2.94 1.383 1.258 8.199 2.312 3.754 4.367 7.038 4.566 7.297.951 1.238 2.155-2.828 1.651-5.581-.417-2.285.251-4.732 2.517-9.222 1.697-3.361 3.085-6.4 3.085-6.753 0-.353-1.322-.448-2.937-.211l-2.937.431 1.528-3.567c2.497-5.832 2.579-6.068 2.106-6.068-.25 0-2.396 3.607-4.769 8.016m41.159-5.066c.43 1.289 1.801 1.521 1.925.325.041-.399-.465-.905-1.125-1.125-.66-.22-1.02.14-.8.8m33.456.466c.335.871 1.047 1.584 1.584 1.584 1.315 0 .492-2.273-1.003-2.771-.731-.244-.954.214-.581 1.187m-144.759 7.583c.19 2.751-.061 5.001-.559 5.001-.498 0-3.579-1.606-6.847-3.569l-5.941-3.569 3.5 3.633c5.526 5.735 16.498 10.665 25.11 11.281l7.198.515-.654-3.271c-.36-1.798-.654-5.239-.654-7.645 0-3.708-.305-4.375-2-4.375-1.733 0-2 .667-2 5 0 2.75-.45 5-1 5s-1-2.198-1-4.883c0-3.994-.354-4.976-1.942-5.392-2.706-.707-3.058-.073-3.058 5.501 0 3.007-.385 4.654-1 4.274-.55-.34-1-2.793-1-5.452 0-3.486-.441-5.003-1.582-5.441C31.429 199.46 31 200.012 31 205c0 2.75-.45 5-1 5s-1-2.475-1-5.5-.337-5.5-.75-5.501c-.413 0-.594 2.25-.403 5M58 202.353c0 2.071.45 2.341 3.75 2.25 3.089-.085 3.806-.499 4.07-2.353.286-2.017-.102-2.25-3.75-2.25-3.607 0-4.07.268-4.07 2.353m0 5.587c0 1.743.627 2.06 4.073 2.06 3.339 0 4.014-.315 3.742-1.75-.232-1.223-1.458-1.843-4.073-2.06-3.212-.267-3.742-.019-3.742 1.75m21.791-.303c-1.41 1.41-1.952 1.474-3.265.385-2.098-1.741-2.96-.702-1.572 1.892 1.428 2.669 4.655 2.685 6.076.031 1.548-2.894.78-4.326-1.239-2.308m.428 7.023c-.817 1.479-1.827 1.994-3.206 1.633-1.107-.289-2.013-.094-2.013.435 0 1.286 3.363 4.272 4.81 4.272 1.342 0 2.539-4.02 1.985-6.671-.348-1.666-.489-1.637-1.576.331M30 219.5c0 1.925.176 3.5.391 3.5.214 0 .574-1.575.799-3.5.225-1.925.049-3.5-.391-3.5-.439 0-.799 1.575-.799 3.5m4.192 2.173c.266 4.171.622 4.871 2.616 5.154 2.171.308 2.29.042 2-4.5-.266-4.171-.622-4.871-2.616-5.154-2.171-.308-2.29-.042-2 4.5m6.658 1.271c-.192 2.782-.125 5.063.15 5.07.275.007 1.538.291 2.807.631 2.225.596 2.296.427 2-4.764-.264-4.628-.608-5.424-2.457-5.687-1.919-.274-2.187.234-2.5 4.75m6.552-3.549c-.294.767-.393 3.129-.219 5.25.257 3.119.747 3.916 2.567 4.175 1.905.27 2.25-.142 2.25-2.685 0-5.903-3.148-10.518-4.598-6.74m-18.634 4.773c.582.582 1.647.86 2.369.62.749-.25.295-.703-1.057-1.057-1.663-.435-2.054-.305-1.312.437M81 223.642c0 .537.7 1.849 1.555 2.917 1.467 1.83 1.487 1.798.365-.559-1.458-3.061-1.92-3.628-1.92-2.358M53 228c0 .55.477 1 1.059 1s.781-.45.441-1-.816-1-1.059-1-.441.45-.441 1m37 16.986c.825.541 2.588.99 3.917.999 3.209.02 2.396-.549-1.917-1.34-2.462-.452-3.055-.351-2 .341m11.269.707c.973.254 2.323.237 3-.037.677-.274-.119-.481-1.769-.461-1.65.02-2.204.244-1.231.498" fill="#fff" fill-rule="evenodd"/><path fill-opacity=".194" d="M156.455 34.455c-2.897 2.896-3.115 5.514-.705 8.471 1.649 2.023 2.617 2.147 16.75 2.147 14.344 0 15.08-.098 16.832-2.249 2.149-2.638 1.612-7.601-1.037-9.574-1.153-.859-6.01-1.25-15.532-1.25-13.376 0-13.939.085-16.308 2.455M28.363 50.163c-1.088 1.685-1.729 83.842-.655 83.822 3.282-.064 3.38-1.324 3.314-42.542-.036-22.487-.454-41.275-.931-41.752-.487-.487-1.242-.281-1.728.472m196.343 1.712c-.388 1.856-.706 40.263-.706 85.349 0 93.236.598 86.681-8.372 91.804-6.051 3.456-10.166 4.409-30.058 6.963-15.354 1.971-61.156 4.756-62.134 3.778-.296-.296.819-2.679 2.478-5.295 2.9-4.572 6.249-13.477 7.58-20.153l.634-3.178 3.48 2.053c6.745 3.98 17.03.46 19.369-6.627 1.394-4.225-.402-9.185-4.491-12.401-3.63-2.856-11.662-2.968-16.159-.226l-3.172 1.934-.653-3.862c-.359-2.125-2.418-7.317-4.577-11.538s-3.925-8.27-3.925-8.998c0-2.096-4.678-7.102-7.872-8.425-1.602-.664-4.199-1.055-5.771-.87l-2.857.337 3.776 1.867c4.241 2.095 11.006 9.309 13.735 14.643 11.625 22.73 3.48 55.57-16.218 65.386-12.651 6.304-26.286 1.601-36.022-12.425-.951-1.37-1.5-1.792-1.219-.938.415 1.261-.178 1.472-3.157 1.125-2.548-.298-3.456-.085-2.972.697.382.619.458 1.125.168 1.125-.29 0-1.164-1.215-1.942-2.701l-1.415-2.701-12.367-.098c-11.502-.092-12.879-.317-19.687-3.219-6.574-2.802-7.114-2.899-5.298-.95 1.112 1.193 3.731 4.012 5.82 6.266 4.78 5.156 11.395 7.685 25.829 9.876 8.735 1.325 12.612 2.484 19.035 5.686l8.066 4.022 11.434-.346c7.942-.24 12.503-.85 14.934-1.997 2.789-1.316 8.121-1.775 26.259-2.261 35.736-.957 66.922-4.439 78.507-8.766 2.896-1.081 6.669-3.148 8.386-4.592 5.718-4.811 5.848-5.803 5.847-44.437-.002-54.787-1.253-139.403-2.03-137.234-.687 1.918-.707 1.917-1.129-.048-.321-1.496-.606-1.15-1.134 1.375M65.5 51.208c-4.058 2.327-4.435 3.855-4.468 18.087-.031 13.334.05 13.878 2.423 16.25L65.909 88h61.411c60.613 0 61.444-.027 64.045-2.073 2.62-2.06 2.635-2.151 2.635-15.918 0-7.615-.28-14.574-.621-15.464-1.715-4.468-2.87-4.547-66.079-4.515-43.097.022-60.359.351-61.8 1.178M189.212 59.5c-.139.656-21.518.928-62.212.791l-62-.209v10.005c0 9.288.176 10.18 2.455 12.458L69.909 85h114.979l2.6-2.25c2.549-2.207 2.592-2.463 2.268-13.25-.182-6.05-.427-10.55-.544-10M71.299 104.624c-8.003 3.946-8.902 13.611-1.785 19.208 3.332 2.621 11.08 2.946 15.519.651 5.786-2.992 7.695-11.017 3.799-15.969-4.086-5.194-11.536-6.847-17.533-3.89m34.116-.203c-9.228 4.018-10.039 15.619-1.404 20.085 3.702 1.914 10.276 1.914 13.978 0 8.743-4.521 7.801-16.189-1.625-20.127-4.081-1.705-6.96-1.694-10.949.042m33 0c-6.599 2.874-9.084 9.451-5.898 15.612 3.925 7.59 17.813 8.045 22.922.75 2.004-2.861 2.005-9.176.002-12.233-1.678-2.561-8.082-5.575-11.711-5.511-1.227.022-3.618.644-5.315 1.382m32.855.062c-3.605 1.567-7.261 6.78-7.266 10.363-.01 6.297 6.049 11.154 13.915 11.154 4.377 0 5.616-.466 8.63-3.25 10.554-9.744-1.563-24.23-15.279-18.267m-97.77 1.699c-4.969 2.851-3.758 5.244 1.774 3.504 2.43-.763 3.673-1.716 3.489-2.675-.368-1.917-2.721-2.288-5.263-.829m33.728-.139c-2.1.84-3.983 3.535-3.092 4.426.976.976 7.89-2.089 7.638-3.386-.357-1.847-1.74-2.163-4.546-1.04m33 0c-2.273.909-3.961 3.558-2.926 4.592 1.088 1.088 7.765-2.049 7.48-3.515-.365-1.883-1.732-2.206-4.554-1.077m32.781.233c-2.448 1.252-4.068 4.724-2.204 4.724 2.366 0 8.293-3.207 7.931-4.292-.576-1.732-2.849-1.903-5.727-.432m-96.759 5.413c2.005.524 2.185 1.629.715 4.377-.57 1.064-.653 1.934-.185 1.934.467 0 1.601-1.575 2.519-3.5l1.669-3.5-3.234.116c-1.779.064-2.447.322-1.484.573m32.64-.509c-.06.176-.231 1.755-.38 3.509-.281 3.326 1.234 4.73 3.971 3.68 2.404-.922 1.309-6.793-1.34-7.189-1.178-.175-2.19-.175-2.251 0m32.819.444c-1.343 1.344-.704 3.243 1.306 3.881 1.108.351 1.751 1.064 1.43 1.583a1.104 1.104 0 01-1.514.369c-.512-.316-.931-.098-.931.484 0 1.424 1.241 1.334 3.404-.247 2.409-1.762 1.778-6.096-.945-6.486-1.123-.161-2.36.027-2.75.416M110 113c0 .55.45 1 1 1s1-.45 1-1-.45-1-1-1-1 .45-1 1m33-.059c0 .518.45 1.219 1 1.559.55.34 1-.084 1-.941s-.45-1.559-1-1.559-1 .423-1 .941m33.27.902c-.714.447-.673 1.005.128 1.748.853.79 1.497.746 2.345-.161.894-.957.864-1.367-.128-1.748-.713-.273-1.768-.201-2.345.161M110 116c0 .55.477 1 1.059 1s.781-.45.441-1-.816-1-1.059-1-.441.45-.441 1m-67.976 14.541c-13.44 3.764-23.123 13.856-22.986 23.959.015 1.1.877-.475 1.916-3.5 7.492-21.814 46.864-27.182 65.163-8.883 2.219 2.219 3.559 3.146 2.978 2.061-1.987-3.714-10.297-10.11-15.948-12.275-7.476-2.865-23.284-3.556-31.123-1.362m61.29 4.409c-6.483 3.953-7.347 11.217-1.973 16.591 5.842 5.842 13.484 5.834 19.338-.02 5.504-5.504 4.251-13.437-2.69-17.027-4.04-2.089-10.848-1.877-14.675.456m33.449-.385c-5.884 3.193-7.459 11.266-3.189 16.34 5.052 6.004 14.83 6.538 20.261 1.106 3.461-3.46 4.233-6.578 2.754-11.108-2.222-6.802-12.761-10.171-19.826-6.338m30.989 2.447c-3.727 3.728-3.972 4.313-3.444 8.25 1.516 11.302 17.915 14.474 24.491 4.738 3.224-4.773 2.468-9.394-2.25-13.75-3.103-2.865-4.186-3.25-9.152-3.25-5.241 0-5.911.279-9.645 4.012m-80.114.69c5.502 5.049 7.573 9.455 7.872 16.752.216 5.239-.036 6.222-1.881 7.365-1.604.994-1.677 1.179-.297.75 1.007-.313 2.757-.569 3.889-.569 1.901 0 2.017-.441 1.527-5.838-.291-3.211-1.279-7.288-2.195-9.06-2.112-4.083-8.239-10.901-10.967-12.202-1.147-.547-.224.714 2.052 2.802m18.112-1.622c-1.648.96-2.491 3.92-1.116 3.92.349 0 2.336-.51 4.417-1.134 2.525-.756 3.609-1.588 3.259-2.5-.612-1.596-4.052-1.746-6.56-.286m33 0c-2.007 1.169-2.37 3.958-.5 3.844 2.545-.155 7.258-2.464 7.5-3.674.304-1.519-4.485-1.635-7-.17m32.821.491c-3.303 3.304-1.138 4.459 4.064 2.167 1.576-.694 2.978-1.819 3.115-2.5.366-1.814-5.294-1.551-7.179.333M109 141.893c0 1.041.787 2.198 1.75 2.571 1.631.633 1.618.776-.191 2.107-1.905 1.402-1.903 1.429.143 1.429 3.004 0 3.619-2.662 1.034-4.473-1.811-1.268-1.889-1.527-.459-1.527.948 0 1.723-.45 1.723-1s-.9-1-2-1c-1.296 0-2 .667-2 1.893m33.571-.322c-2.689 2.69-1.317 6.912 2.037 6.266 2.812-.542 2.954-3.681.216-4.778-1.731-.694-1.878-.948-.574-.996.963-.034 1.75-.513 1.75-1.063 0-1.486-1.646-1.212-3.429.571m.898 3.479c-.95 1.538.351 2.53 1.635 1.246.718-.718.735-1.277.052-1.699-.56-.346-1.319-.142-1.687.453m32.8-.357c.973.254 2.323.237 3-.037.677-.274-.119-.481-1.769-.461-1.65.02-2.204.244-1.231.498M13.254 164.341c-.682 1.498-1.454 4.622-1.714 6.942-.261 2.319-.219 3.317.092 2.217s1.234-3.435 2.052-5.189c.817-1.754 1.334-3.978 1.149-4.941-.265-1.374-.606-1.163-1.579.971m125.161-.92c-4.091 1.782-7.415 6.158-7.415 9.764 0 7.072 5.598 11.982 13.66 11.982 13.165 0 17.538-16.049 5.88-21.581-4.034-1.914-7.984-1.968-12.125-.165m33.085-.018c-4.137 1.826-6.483 4.72-7.148 8.818-1.88 11.581 14.392 17.918 22.983 8.951 9.28-9.686-2.98-23.444-15.835-17.769m-31.272 1.64c-2.1.84-3.983 3.535-3.092 4.426.976.976 7.89-2.089 7.638-3.386-.357-1.847-1.74-2.163-4.546-1.04m32.781.247c-2.446 1.238-4.071 4.71-2.204 4.71 1.829 0 8.195-3.035 8.195-3.906 0-.484-.712-1.153-1.582-1.487-1.932-.741-1.445-.817-4.409.683m-71.906 1.644c12.676 2.475 22.349 15.887 23.631 32.764 1.283 16.894-5.677 32.871-17.62 40.445-5.905 3.744-4.064 3.67 2.512-.102 12.051-6.911 19.249-23.04 18.094-40.541-.677-10.264-3.777-18.235-9.618-24.732-5.247-5.836-10.88-8.764-16.602-8.631l-4 .093 3.603.704M64.5 169c.34.55 1.297 1 2.126 1 1.054 0 1.317.603.874 2-.849 2.674 1.003 2.548 2.928-.201 1.193-1.703 1.263-2.377.307-2.984-1.815-1.153-6.967-1-6.235.185m113.536 1.933c-1.877 3.508-2.999 7.067-2.227 7.067.418 0 1.51-2.025 2.427-4.5 1.721-4.644 1.618-5.965-.2-2.567M61 171.171c0 .644-.745 1.994-1.655 3-2.299 2.541.131 2.353 2.691-.207 1.121-1.121 1.769-2.471 1.441-3-.83-1.344-2.477-1.206-2.477.207m82.25-.532c.963.279 1.75.892 1.75 1.361s-.787 1.059-1.75 1.311c-1.667.435-1.667.463 0 .573 2.582.171 2.13 2.111-.5 2.146-2.051.028-2.091.123-.448 1.079 2.5 1.454 4.625-.498 4.267-3.919-.212-2.028-.871-2.735-2.675-2.875-1.464-.113-1.714.013-.644.324M7.086 180.715c-.047 2.868.547 7.143 1.32 9.5s1.597 6.985 1.831 10.285C10.959 210.688 17 220.031 17 210.961c0-3.862.143-4.094 1.75-2.833.962.754.013-.596-2.109-3.002-2.123-2.405-3.449-4.655-2.947-5 .501-.344.878-2.538.837-4.876-.081-4.553.255-4.952 2.519-3 .797.688-.184-.55-2.182-2.75-3.821-4.209-5.635-7.208-6.92-11.442-.608-2.005-.795-1.43-.862 2.657M58 182l-4.5.7 4.191.15c2.305.082 4.469-.3 4.809-.85.34-.55.479-.932.309-.85-.17.083-2.334.465-4.809.85m117 10.003c-5.004.896-7.76 2.631-9.49 5.977-3.111 6.016-.906 12.212 5.529 15.54 6.011 3.108 14.533.871 17.935-4.71 2.925-4.796 2.583-8.239-1.224-12.344-3.692-3.981-7.668-5.372-12.75-4.463m-124.52 2.03c-.349.564 1.161.967 3.628.967 4.798 0 4.858-.434.181-1.324-1.766-.336-3.48-.175-3.809.357m88.27 1.047c-1.648.96-2.491 3.92-1.116 3.92.349 0 2.336-.51 4.417-1.134 2.525-.756 3.609-1.588 3.259-2.5-.612-1.596-4.052-1.746-6.56-.286m33 0c-2.082 1.213-2.334 3.92-.365 3.92 2.313 0 7.099-2.444 7.365-3.762.304-1.507-4.498-1.615-7-.158M52.5 201l-3 .763 2.847.119c2.782.115 2.838.23 2.5 5.119-.244 3.518.023 5 .903 5C56.611 212 57 210.133 57 206c0-3.3-.337-5.947-.75-5.882-.413.065-2.1.462-3.75.882m123.25 1.662c.688.278 1.813.278 2.5 0 .688-.277.125-.504-1.25-.504s-1.937.227-1.25.504m0 2c.688.278 1.813.278 2.5 0 .688-.277.125-.504-1.25-.504s-1.937.227-1.25.504m-120.5 13.027c1.334.349 1.75 1.509 1.75 4.884 0 2.435.45 4.427 1 4.427 1.105 0 1.308-4.248.37-7.75-.402-1.5-1.314-2.211-2.737-2.134-1.69.092-1.769.211-.383.573M19 219.378c0 .207.788.995 1.75 1.75 1.586 1.243 1.621 1.208.378-.378-1.307-1.666-2.128-2.195-2.128-1.372m31 13.573c2.498.849 8.704 1.38 7.917.677-.229-.204-2.667-.632-5.417-.949-3.372-.39-4.186-.301-2.5.272" fill="#fff" fill-rule="evenodd"/><path fill-opacity=".943" d="M156.225 40.881c.151.759 1.287 2.051 2.525 2.871 2.157 1.43 2.25 1.374 2.25-1.38 0-2.404-.411-2.872-2.525-2.872-1.614 0-2.426.498-2.25 1.381m7.207.333c-.879 2.769.364 3.786 4.627 3.786 3.491 0 3.941-.273 3.941-2.395 0-2.064-.553-2.448-4.003-2.777-3.16-.301-4.122-.009-4.565 1.386M174 42.25c0 2.542.303 2.75 4 2.75s4-.208 4-2.75-.303-2.75-4-2.75-4 .208-4 2.75m10.525-1.454c-.98 2.554-.53 3.344 1.725 3.024 2.981-.424 3.718-4.391.816-4.391-1.109 0-2.253.615-2.541 1.367M66.242 51.494C61.779 53.434 61 56.206 61 70.142c0 11.943.017 12.029 2.923 14.935L66.846 88h121.308l2.923-2.923c2.922-2.923 2.923-2.926 2.923-15.566 0-7.144-.47-13.521-1.08-14.661-2.539-4.744-4.015-4.853-65.638-4.811-47.569.032-58.358.29-61.04 1.455m1.393 3.579C65.065 57.094 65 57.425 65 68.491c0 6.24.28 12.074.621 12.964 1.703 4.439 3.16 4.545 62.079 4.541 53.452-.003 55.934-.085 58.98-1.943 3.784-2.307 4.759-6.683 4.155-18.64-.346-6.867-.662-7.868-3.166-10.021L184.888 53h-57.309c-56.464 0-57.348.031-59.944 2.073m2.679 50.877c-3.696 2.254-5.314 4.852-5.314 8.534 0 12.386 18.699 15.734 24.561 4.398 2.306-4.459.586-10.212-3.865-12.926-4.181-2.549-11.207-2.552-15.382-.006m33.449-.385c-6.289 3.412-7.229 11.698-1.907 16.797 4.958 4.75 12.443 4.782 18.033.078 5.706-4.802 4.752-13.506-1.856-16.923-3.7-1.913-10.699-1.89-14.27.048m32.993.19c-5.857 3.631-7.104 11.762-2.454 15.994 5.072 4.617 10.361 5.454 16.388 2.594 7.478-3.549 8.253-13.462 1.412-18.059-4.135-2.779-11.318-3.027-15.346-.529m31.779 1.349c-2.986 2.621-3.535 3.751-3.535 7.277 0 9.169 8.982 14.16 18.401 10.225 4.389-1.834 6.599-5.159 6.599-9.929 0-3.076-.702-4.579-3.4-7.277-3.052-3.052-3.969-3.4-8.965-3.4-4.799 0-6.052.427-9.1 3.104m-96.591-.26c-1.432 1.16-2.046 2.447-1.655 3.468.561 1.462.971 1.477 4.135.155 1.931-.807 4.426-1.467 5.544-1.467 2.398 0 2.732-2.517.45-3.393-2.888-1.108-6.169-.629-8.474 1.237m33 0c-1.432 1.16-2.046 2.447-1.655 3.468.561 1.462.971 1.477 4.135.155 1.931-.807 4.426-1.467 5.544-1.467 2.398 0 2.732-2.517.45-3.393-2.888-1.108-6.169-.629-8.474 1.237m33.279-.287c-4.277 2.995-1.775 6.419 2.827 3.87 1.348-.746 3.388-1.372 4.533-1.392 2.785-.047 3.643-1.058 2.286-2.693-1.508-1.817-6.918-1.696-9.646.215m32.71.51c-1.584 1.584-1.804 2.384-.94 3.424.947 1.141 1.668 1.131 4.534-.067 1.875-.783 4.323-1.424 5.441-1.424 2.296 0 2.602-1.03.832-2.8-1.931-1.931-7.563-1.437-9.867.867M75 112c0 .55.691 1 1.535 1 1.208 0 1.315.412.5 1.934-1.242 2.322-1.337 4.066-.22 4.066.708 0 4.185-6.259 4.185-7.534 0-.256-1.35-.466-3-.466s-3 .45-3 1m33.292 2.75c.182 3.278.523 3.75 2.708 3.75s2.526-.472 2.708-3.75c.195-3.523.032-3.75-2.708-3.75s-2.903.227-2.708 3.75m33.375-3.083c-1.36 1.359-.6 3.425 1.583 4.302l2.25.904-2.45.064c-1.781.046-2.15.363-1.351 1.162.605.605 2.045.8 3.2.433 1.597-.507 2.101-1.49 2.101-4.099 0-2.93-.342-3.433-2.333-3.433-1.284 0-2.634.3-3 .667m33.625 1.784c-1.783 2.029 1.062 4.33 3.18 2.572 1.262-1.047 1.272-1.421.072-2.622-1.686-1.685-1.728-1.685-3.252.05M227.099 128c-.306 6.802-.509 7.701-1.014 4.5-1.348-8.543-2.085 8.819-2.085 49.112v40.318l-3.012 3.431c-5.748 6.547-13.928 8.862-42.988 12.166-14.782 1.681-58 3.216-58 2.061 0-.397 1.107-2.173 2.46-3.947 3.629-4.757 7.233-13.3 8.592-20.365l1.198-6.224 2.491 1.959c11.098 8.73 26.918-1.1 20.803-12.926-2.719-5.257-11.619-7.659-17.344-4.68-5.551 2.888-6.934 5.498-7.471 14.095-.274 4.4-1.329 10.475-2.344 13.5-2.548 7.594-8.972 16.825-14.588 20.962-2.587 1.906-4.612 3.497-4.5 3.536.112.04 13.028-.239 28.703-.619 41.973-1.017 70.353-4.703 81.159-10.539 9.394-5.074 8.897-1.489 8.591-61.948-.147-29.09-.44-49.067-.651-44.392m-121.098 6.123c-6.584 2.626-9.479 9.118-6.573 14.739 4.266 8.248 18.878 8.248 23.144 0 4.75-9.188-6.159-18.891-16.571-14.739m31.999.629c-4.98 2.487-7.56 8.022-5.976 12.819 1.592 4.825 6.014 7.42 12.649 7.425 4.095.003 5.808-.53 8.216-2.556 10.784-9.074-1.92-24.167-14.889-17.688m33.378-.315c-4.25 1.85-6.384 5.225-6.346 10.036.054 6.805 4.575 10.527 12.791 10.527 4.782 0 5.753-.376 8.777-3.4 5.784-5.784 4.238-14.098-3.199-17.206-4.148-1.733-7.974-1.719-12.023.043m-65.628 1.135c-1.513.821-2.75 2.167-2.75 2.991 0 1.971 2.826 3.011 4.267 1.57.623-.623 2.618-1.133 4.433-1.133 3.755 0 4.537-2.268 1.366-3.965-2.551-1.365-4.007-1.258-7.316.537m34.086-.438c-2.983 1.092-4.422 3.68-2.896 5.206.674.674 1.854.619 3.58-.167 1.416-.645 3.651-1.173 4.968-1.173 3.354 0 3.954-1.577 1.306-3.432-2.524-1.768-3.202-1.81-6.958-.434m33.629-.182c-3.184 1.29-5.002 3.911-3.65 5.263.841.841 1.791.83 3.705-.042 1.416-.645 3.651-1.173 4.968-1.173 3.194 0 4.263-1.978 1.974-3.652-2.062-1.508-3.986-1.617-6.997-.396M108 142.43c0 1.726.653 2.557 2.25 2.864l2.25.434-2.25.136c-1.237.075-2.25.616-2.25 1.202 0 .587 1.234.924 2.741.75 3.563-.411 4.262-3.483 1.083-4.757l-2.324-.932 2.25-.064c3.409-.096 2.694-2.063-.75-2.063-2.51 0-3 .397-3 2.43m34.046-.985c-2.092 2.521-.883 6.016 2.204 6.371 2.349.271 2.75-.046 2.75-2.176 0-1.534-.674-2.669-1.75-2.951-1.667-.435-1.667-.463 0-.573.963-.064 1.75-.566 1.75-1.116 0-1.518-3.593-1.195-4.954.445M174.5 144c-.369.596.843 1 3 1s3.369-.404 3-1c-.34-.55-1.69-1-3-1s-2.66.45-3 1m-31 2c.34.55.816 1 1.059 1s.441-.45.441-1-.477-1-1.059-1-.781.45-.441 1m-30.936 18.413c1.685.734 4.945 3.529 7.244 6.211 2.893 3.376 4.181 4.322 4.186 3.076.019-5.331-5.916-10.742-11.694-10.661l-2.8.039 3.064 1.335m23.699.694c-6.775 4.339-6.469 12.824.635 17.606 11.967 8.055 26.69-6.325 16.702-16.313-3.026-3.026-3.988-3.398-8.75-3.383-3.683.011-6.359.663-8.587 2.09m32.272.997c-2.986 2.621-3.535 3.751-3.535 7.277 0 9.169 8.982 14.16 18.401 10.225 4.389-1.834 6.599-5.159 6.599-9.929 0-3.076-.702-4.579-3.4-7.277-3.052-3.052-3.969-3.4-8.965-3.4-4.799 0-6.052.427-9.1 3.104m-30.312-.547c-4.277 2.995-1.775 6.419 2.827 3.87 1.348-.746 3.388-1.372 4.533-1.392 2.785-.047 3.643-1.058 2.286-2.693-1.508-1.817-6.918-1.696-9.646.215m32.71.51c-1.623 1.623-1.816 2.369-.899 3.474 1.002 1.207 1.572 1.197 4.017-.067 1.567-.811 3.997-1.474 5.399-1.474 2.776 0 3.223-.927 1.35-2.8-1.931-1.931-7.563-1.437-9.867.867m5.505 7.455c-1.956 5.123-1.339 7.144.862 2.821 2.193-4.308 2.957-7.343 1.85-7.343-.541 0-1.762 2.035-2.712 4.522M141 171.107c0 .609.675.848 1.5.531.825-.316 1.5-.139 1.5.393 0 .533-.562.983-1.25 1.001-.704.018-.402.673.691 1.5 1.881 1.423 1.867 1.468-.45 1.468-1.731 0-2.089.302-1.297 1.094 2.263 2.263 4.796.567 5.014-3.357.196-3.521.036-3.737-2.75-3.737-1.627 0-2.958.498-2.958 1.107m30 22.645c-4.124 2.06-7.118 7.494-6.322 11.474.741 3.698 4.818 7.561 9.237 8.751 14.174 3.817 22.846-15 9.486-20.583-4.456-1.862-8.173-1.755-12.401.358m-31.692.404c-4.733 2.371-3.568 7.195 1.212 5.017 1.416-.645 3.651-1.173 4.968-1.173 4.731 0 3.882-3.645-1.038-4.456-1.622-.267-3.936.008-5.142.612m34.157-.204c-3.184 1.29-5.002 3.911-3.65 5.263.841.841 1.791.83 3.705-.042 1.416-.645 3.651-1.173 4.968-1.173 3.194 0 4.263-1.978 1.974-3.652-2.062-1.508-3.986-1.617-6.997-.396M175 203c0 1.467.667 2 2.5 2s2.5-.533 2.5-2-.667-2-2.5-2-2.5.533-2.5 2m-32 0c0 .55.45 1 1 1s1-.45 1-1-.45-1-1-1-1 .45-1 1M28.777 228.25c3.913 6.443 15.081 10.421 37.223 13.26l5.5.705-2.925-3.095c-1.639-1.734-4.277-3.289-6-3.537-12.747-1.833-17.695-2.978-20.662-4.783-2.84-1.729-13.137-5.8-14.668-5.8-.243 0 .447 1.463 1.532 3.25M51.5 230c-3.431.614-2.969.736 3.25.858 4.261.084 7.25-.27 7.25-.858 0-1.103-4.338-1.103-10.5 0" fill="#fff" fill-rule="evenodd"/></svg>